{"asset":{"version":"2.0","generator":"THREE.GLTFExporter r178"},"scenes":[{"nodes":[0]}],"scene":0,"nodes":[{"mesh":0}],"bufferViews":[{"buffer":0,"byteOffset":0,"byteLength":56592,"target":34962,"byteStride":12},{"buffer":0,"byteOffset":56592,"byteLength":9432,"target":34963}],"buffers":[{"byteLength":66024,"uri":"data:application/octet-stream;base64,"}],"accessors":[{"bufferView":0,"componentType":5126,"count":4716,"max":[49.599998474121094,17.600000381469727,49.599998474121094],"min":[-49.599998474121094,0.20000000298023224,-49.599998474121094],"type":"VEC3"},{"bufferView":1,"componentType":5123,"count":4716,"max":[4715],"min":[0],"type":"SCALAR"}],"materials":[{"pbrMetallicRoughness":{"metallicFactor":0,"roughnessFactor":1}}],"meshes":[{"primitives":[{"mode":4,"attributes":{"POSITION":0},"indices":1,"material":0}]}]}